/vscmnt/brussel_pixiu_data/_data_brussel/112/vsc11236/PredSimResults/SUBJ10mtu3D/worker3.mot
version=1
nRows=4
nColumns=50
inDegrees=yes
endheader
                time	         pelvis_tilt	         pelvis_list	     pelvis_rotation	           pelvis_tx	           pelvis_ty	           pelvis_tz	       hip_flexion_r	     hip_adduction_r	      hip_rotation_r	        knee_angle_r	       ankle_angle_r	         mtp_angle_r	       hip_flexion_l	     hip_adduction_l	      hip_rotation_l	        knee_angle_l	       ankle_angle_l	         mtp_angle_l	    lumbar_extension	      lumbar_bending	     lumbar_rotation	 ercspn_r/activation	 intobl_r/activation	 extobl_r/activation	    abd_r/activation	    add_r/activation	hamstrings_r/activation	bifemsh_r/activation	glut_max_r/activation	iliopsoas_r/activation	rect_fem_r/activation	  vasti_r/activation	gastroc_r/activation	 soleus_r/activation	tib_ant_r/activation	 ercspn_l/activation	 intobl_l/activation	 extobl_l/activation	    abd_l/activation	    add_l/activation	hamstrings_l/activation	bifemsh_l/activation	glut_max_l/activation	iliopsoas_l/activation	rect_fem_l/activation	  vasti_l/activation	gastroc_l/activation	 soleus_l/activation	tib_ant_l/activation	
          1.67264075	         -4.28074264	          0.93891647	         -7.69445032	          2.02389531	          0.82211587	          0.01258442	        -16.79447833	         -0.93728722	         -0.33535233	         -4.91300621	          7.45251180	         27.06799376	         31.16988890	         -1.88452257	         -6.42889723	         -6.88101362	          1.94503511	          0.26847184	         -7.07685227	          0.77104994	          6.42207344	          0.06280430	          0.00999999	          0.00999999	          0.05425523	          0.00999999	          0.01460150	          0.23798226	          0.01058962	          0.35673238	          0.01000000	          0.00999999	          0.32171531	          0.24657059	          0.02345020	          0.11966452	          0.19124741	          0.00999999	          0.01000000	          0.11845761	          0.11803127	          0.27593871	          0.02997297	          0.10858619	          0.01000000	          0.00999999	          0.01000000	          0.00999999	          0.30381376	
          1.68379169	         -4.32468122	          0.90136149	         -7.82382418	          2.03947081	          0.82072340	          0.01249987	        -16.91859867	         -1.05623523	         -0.60342333	         -6.51685221	          6.72848604	         28.72555998	         31.09916055	         -1.79497474	         -6.25227139	         -8.47230498	          1.68191578	          0.26536653	         -6.89779424	          0.33926430	          6.70043823	          0.10221624	          0.00999999	          0.00999999	          0.04575222	          0.01000002	          0.01231323	          0.20068514	          0.01158319	          0.30082447	          0.01000000	          0.00999999	          0.28771875	          0.23628403	          0.01977503	          0.10091044	          0.16127468	          0.01000000	          0.00999999	          0.15865332	          0.10169723	          0.23392715	          0.06749787	          0.09156831	          0.00999999	          0.00999999	          0.01667601	          0.01185849	          0.32987838	
          1.69494263	         -4.35793294	          0.87503374	         -7.91095721	          2.05535505	          0.81953576	          0.01233712	        -16.93272026	         -1.19316267	         -0.90480178	         -8.35253327	          5.87383590	         30.32511030	         30.86353440	         -1.71721542	         -6.01394672	         -9.94822692	          1.28625811	          0.25605741	         -6.69887322	         -0.11375190	          6.95336357	          0.11272567	          0.00999999	          0.00999999	          0.03858183	          0.01000000	          0.01038357	          0.16923330	          0.00999999	          0.25367857	          0.01000000	          0.00999999	          0.24262681	          0.22046928	          0.01667584	          0.09154894	          0.13599934	          0.00999999	          0.03344246	          0.13378881	          0.08880397	          0.19726555	          0.09936985	          0.07721752	          0.00999999	          0.00999999	          0.01406251	          0.01000000	          0.41682098	
          1.70609357	         -4.38194590	          0.84722891	         -7.94987626	          2.07134135	          0.81867084	          0.01205026	        -16.76590203	         -1.33590359	         -1.24042429	        -10.51500340	          4.89287815	         31.78219031	         30.55549804	         -1.63562554	         -5.85274707	        -11.28243070	          0.77887272	          0.24195266	         -6.50553847	         -0.56466094	          7.17414188	          0.14178976	          0.00999999	          0.00999999	          0.03253520	          0.01000000	          0.01000088	          0.14271067	          0.00999999	          0.21392148	          0.01000000	          0.00999999	          0.20460178	          0.20367155	          0.01406237	          0.10737917	          0.11468521	          0.00999999	          0.08498401	          0.17464344	          0.07488644	          0.16634965	          0.11482109	          0.06511581	          0.00999999	          0.00999999	          0.01185860	          0.00999999	          0.47182479	
